# xmcd CD database file
#
# Track frame offsets:
#	150
#	16350
#	36689
#	61198
#	72265
#	77575
#	110023
#	120439
#	133604
#	148497
#	172146
#	185633
#	198931
#	225234
#	237547
#	254288
#	269026
#	284965
#
# Disc length: 4227 seconds
#
# Revision: 1
# Processed by: cddbd v1.5.2PL0 Copyright (c) Steve Scherf et al.
# Submitted via: CDex 1.77
#
DISCID=1f108112
DTITLE=Moni Ovadia - Ballata di fine millennio
DYEAR=1996
DGENRE=Folk
TTITLE0=Rie Payaso
TTITLE1=Lied von der belenbenden Wirkung des Geldes
TTITLE2=Stolz
TTITLE3=Kanonen-Song
TTITLE4=Kriegslied - Die Mutter liegt im Krankenhaus
TTITLE5=Papirossn
TTITLE6=Lob der Kommunismus
TTITLE7=Solidaritatlied
TTITLE8=El quinto regimiento
TTITLE9=Mir zenen do
TTITLE10=Grabschrift 1919
TTITLE11=Mag sein, dass ich irre
TTITLE12=Youkali
TTITLE13=Ciornye Buschlaty
TTITLE14=Alabama Song
TTITLE15=Friling
TTITLE16=Das Lied von der Unzulanglichkeit des menschlichen Strebens
TTITLE17=Take this Waltz
EXTD=YEAR: 1996
EXTT0=
EXTT1=
EXTT2=
EXTT3=
EXTT4=
EXTT5=
EXTT6=
EXTT7=
EXTT8=
EXTT9=
EXTT10=
EXTT11=
EXTT12=
EXTT13=
EXTT14=
EXTT15=
EXTT16=
EXTT17=
PLAYORDER=
